<?xml version="1.0" encoding="UTF-8"?>
<svg version="1.1" viewBox="0 0 2000 892" width="1280" height="1280" xmlns="http://www.w3.org/2000/svg">
<path transform="translate(397,202)" d="m0 0h13l8 4 6 7 3 10v12l-6 45-14 95-17 117-10 79v20l1 5 5 2-2-9v-27l4-33 6-26 7-20 9-20 8-15 8-13 11-16 9-11 9-10 7-8 11-10 17-13 15-9 17-8 15-5 16-3 19-1 18 2 21 6 24 9 10 3h9l11-5 21-10 17-5h8l7 3 6 7 4 11v11l15-7 24-9 28-9 19-4h11l6 5 4 8 7 33 1 2 5-2 28-20 19-11 19-8 17-5 13-2h23l15 3 12 6 9 7 8 8 10 15 6 10h4l12-8 17-12 18-11 16-8 21-7 17-3h23l16 3 16 8 10 9 6 7 8 16 4 13 3 23v30l-3 35-8 54-4 30v20l2 5 4 2-2-9v-24l2-24 4-23 7-26 6-15 12-25 11-18 13-19 9-10 9-11 8-8 11-9 14-11 15-9 19-9 17-5 12-2 11-1h9l17 2 21 6 24 9 11 3h8l18-8 14-7 13-4 11-1 8 3 7 8 3 9v21l-6 40-9 61-8 63-3 30v15l3 6 6 2h6l10-13 9-9 13-9 14-8 7-2-5-5-11-12-9-14-6-13-5-16-2-13v-29l3-17 6-18 9-16 11-14 11-11 15-11 17-10 21-8 18-5 18-3 24-2h20l36 3 24 3h9l14-9 10-8 12-11 9-9 5 1 13 13 7 12 1 3v10l-4 9-6 9-4 5-10 8-2 1 2 5 8 13 7 15 4 14 2 15v14l-2 18-5 19-9 19-9 13-11 12-10 9-15 10-19 10-24 8-17 4-25 3h-41l-27-4-19-5h-4l-7 12-2 7v10l5 10 10 6 14 3h31l72-5h41l17 3 14 6 13 10 9 12 5 11 3 15v23l-3 16-5 13-6 11-9 12-13 13-15 11-16 9-17 8-21 7-21 5-18 3-30 3h-40l-25-3-19-4-20-7-16-9-11-9-9-11-6-13-2-10v-13l3-12 8-14 7-9 10-10h2l1-3h2v-2l-5-2-8-6-7-8-5-9v-3l-24 14-15 8-17 7-15 4-13 1-12-3-5-4-6-10-5-15-4-19v-3l-11 6-27 18-21 12-23 11-19 6-13 2h-21l-16-3-16-7-13-9-10-10-8-11v-2l-7 4-10 8-18 11-16 8-20 7-18 4-7 1h-16l-15-3-8-5-5-7-2-7v-16l5-30 8-41 8-50 4-30 2-18 1-17-1-14-4-13-5-7-8-4-5-1h-8l-12 3-9 6-4 2-2 4-4 5-8 15-7 21-6 27-4 25-4 37-4 48-3 23-3 12-5 8-7 6-15 7-20 6-22 4-10 1h-10l-12-3-8-7-3-10 1-14 6-36 8-46 9-56 4-32 1-21-2-14-5-12-7-6-10-3-13 1-8 3-9 6-8 9-9 17-6 18-6 26-5 32-4 40-4 47-4 24-4 10-4 5-11 7-18 7-16 4-18 3-11 1h-11l-12-3-5-4-3-8v-15l1-3-14 9-22 12-19 8-15 4h-20l-6-3-7-8-6-13-7-28-7 3-27 18-15 9-18 10-20 8-13 4-13 2h-21l-16-3-18-8-11-8-12-12-6-10-5 3-15 10-18 10-16 8-21 7-16 2-11-2-5-3-7-10-5-12-5-23v-3l-8 3-21 14-21 13-25 13-19 7-13 3-8 1h-20l-16-3-12-5-9-5-10-8-8-8-9-13-8-16-5-17-3-18-1-23 2-27 5-25 6-21 10-26 13-25 12-19 10-13 11-13 7-8 8-7 10-9 17-12 16-9 15-7 17-5 12-2h24l15 3 33 11h5l4-9 3-15 2-23v-9l-2-9-4-6-8-4-20-7-10-6-4-5-1-2v-10l4-8 8-7 15-8 27-9 30-8 29-6zm1317 182-12 3-13 7-12 11-9 13-8 17-5 17-2 15v25l3 16 5 12 7 9 8 6 11 4 6 1h12l12-3 12-6 10-8 9-11 8-13 6-15 4-16 2-16v-14l-2-16-4-12-6-11-7-7-9-5-10-3zm-1455 12-12 4-10 6-10 9-10 10-13 20-13 25-9 24-7 24-4 21-1 9v30l3 12 5 10 8 8 8 4 5 1h10l11-3 10-5 11-9 7-7 13-17 9-15 8-16 10-25 7-25 4-22 1-8v-27l-3-14-6-12-7-7-8-4-5-1zm322 0-12 4-11 6-13 12-12 15-8 13-7 12-9 20-11 33-5 24-2 16v23l2 12 5 12 9 10 8 4 5 1h10l11-3 10-5 10-8 12-12 10-14 11-19 9-19 7-19 6-21 4-19 2-21v-12l-2-16-4-11-6-9-7-6-9-3zm824 0-13 4-9 5-10 8-8 8-13 18-12 21-11 26-7 22-5 21-2 12-1 11v23l3 14 6 12 7 7 8 4 5 1h10l11-3 10-5 10-8 12-12 10-14 12-21 8-17 7-19 6-21 5-26 1-25-2-17-5-13-6-8-6-5-9-3zm-684 26-10 68-9 74-1 11v16l3 6 2 2 5 1h12l2-6 9-47 8-49 4-30 1-10v-22l-4-8-7-4-9-2zm883 273-3 8-1 9 3 14 6 10 4 5 10 7 10 5 17 5 14 2h41l21-4 16-6 10-6 8-7 5-9 1-4v-12l-4-8-5-4-12-3-21 1-39 4-14 1h-21l-22-3-21-5z" fill="#0295B1"/>
</svg>
