<?xml version="1.0" encoding="UTF-8"?>
<svg version="1.1" viewBox="0 0 2000 836" width="1280" height="1280" xmlns="http://www.w3.org/2000/svg">
<path transform="translate(372,136)" d="m0 0h15l8 4 7 8 2 5 1 6v10l-3 28-18 122-14 96-9 66-6 48-1 10v22l3 5 2 1-1-5-1-23 2-29 4-24 6-25 7-20 12-26 12-21 13-19 11-14 9-10 7-8 8-8 11-9 13-10 15-9 16-8 19-7 13-3 8-1h29l20 4 24 8 19 7 7 2h9l16-7 21-10 13-4h15l8 5 5 8 3 9v12l18-8 17-7 31-10 24-6 13-1 6 3 6 7 3 9 5 26 2 9 5-2 13-10 17-12 19-11 14-7 19-7 19-4 13-1h10l16 2 12 4 12 7 10 9 7 8 11 18 5 7 5-2 19-13 11-8 18-11 15-8 22-8 12-3 20-2 21 1 16 4 12 6 9 7 8 8 8 13 6 16 3 14 2 20v28l-3 38-8 54-5 35-1 12v13l3 7 2 1v-46l3-25 5-23 6-22 11-26 11-21 12-19 10-14 9-11 12-14 11-11 11-9 13-10 15-9 16-8 19-7 13-3 8-1h29l20 4 24 8 19 7 7 2h9l16-7 21-10 13-4h15l8 5 5 8 3 9v18l-4 31-9 58-8 59-4 33-3 28-1 17 2 10 4 3 11 2 8-11 7-8 9-8 15-10 17-9h2l-14-14-11-15-9-19-5-17-3-18v-24l3-19 5-16 5-12 8-13 10-13 12-12 10-8 15-10 16-8 18-7 19-5 23-4 11-1h47l31 3 22 3h9l14-9 13-10 13-12 9-10 5 1 15 15 7 12 1 3v12l-3 9-7 10-7 8-10 8h-2l3 5 7 10 9 19 5 17 2 12v26l-3 19-8 24-9 16-10 13-11 12-14 11-14 9-16 8-15 6-17 5-20 4-30 3h-27l-29-3-19-4-15-4-7 11-3 8-1 4v8l3 8 5 6 12 6 11 2h37l74-5h49l16 3 12 5 10 6 10 9 7 10 5 10 4 17v28l-3 16-5 13-6 12-9 12-11 12-13 11-16 10-21 11-18 7-25 7-26 5-29 3-14 1h-32l-29-3-24-5-17-6-16-8-11-7-13-13-8-14-3-8-2-18 3-15 7-14 10-13 8-9 7-6 1-2-5-2-9-7-9-11-5-10-11 7-24 13-17 8-18 6-11 2h-15l-9-4-5-5-6-10-6-18-4-19-2-1-12 7-19 13-20 12-18 10-23 10-19 5-11 2h-21l-17-3-15-6-12-7-13-11-9-11-5-7-4 2-13 10-19 12-21 10-24 8-22 4h-17l-15-3-8-4-7-8-3-9v-16l4-26 12-63 9-59 4-32 1-11v-24l-3-14-6-11-8-5-4-1h-17l-13 5-10 8-9 13-8 17-7 23-5 24-4 26-4 35-5 60-3 23-4 15-6 9-10 7-17 7-17 5-28 5h-23l-11-4-7-8-2-6v-15l10-59 8-47 9-57 3-24 1-14v-11l-2-15-5-12-5-5-6-4-4-1h-17l-13 5-10 9-7 9-8 15-8 24-6 28-5 33-4 38-4 49-3 23-4 16-6 9-10 7-14 6-24 7-25 4h-25l-8-3-6-5-3-7v-20l-14 9-18 10-19 9-18 6-12 2h-14l-9-4-5-5-6-10-6-18-4-19-2-1-9 5-16 11-19 12-25 14-21 9-16 5-16 3h-22l-16-3-15-6-12-7-13-11-9-11-4-6-10 6-19 12-27 14-16 6-11 3-8 1h-12l-10-3-8-9-7-15-5-21-1-10-10 5-24 16-20 12-18 10-18 8-18 6-17 3h-22l-15-3-14-5-11-6-9-7-7-6-8-10-8-13-7-15-5-17-3-18-1-10v-26l3-26 5-24 7-24 11-27 12-23 12-19 14-19 12-14 18-18 14-11 18-12 16-9 21-8 17-4 9-1h21l20 4 36 12 4-1 4-9 4-21 1-11v-25l-3-7-5-5-8-4-21-7-10-6-4-5-2-4v-9l4-9 7-7 16-9 36-12 44-11 22-4zm1433 198-11 3-14 7-11 9-8 10-8 13-7 16-4 15-2 12-1 20 1 18 5 19 6 11 8 8 9 5 9 3 6 1h12l16-4 11-6 10-8 10-11 9-15 6-14 5-18 2-12v-33l-4-16-8-16-6-7-10-6-7-3-5-1zm-1580 13-13 3-13 7-12 11-5 5-10 12-10 16-7 12-11 25-7 20-6 21-4 19-2 18v26l3 15 6 12 6 7 8 5 12 3 11-1 12-4 11-7 10-9 9-9 11-15 8-13 12-23 10-26 8-29 4-24 1-9v-25l-3-15-4-10-6-8-7-6-7-3-5-1zm350 0-11 2-14 7-10 8-11 11-11 15-10 16-8 16-7 16-7 19-6 21-5 26-1 10v29l3 13 5 12 8 9 12 6h17l12-4 12-7 12-11 7-7 11-15 8-13 10-19 10-25 8-26 4-18 3-20v-30l-3-13-4-10-6-9-8-6-5-2-6-1zm896 0-11 2-14 7-10 8-11 11-11 15-10 16-8 16-7 16-7 19-6 21-5 26-1 10v29l3 13 4 10 7 9 9 6 5 2h17l12-4 12-7 12-11 7-7 11-15 8-13 10-19 10-25 8-26 5-24 2-13v-32l-4-16-6-11-5-6-9-5-8-2zm-746 28-3 16-9 62-8 65-2 18-1 18 2 10 4 4 12 2 7-1 4-16 9-48 8-48 4-32 1-12v-22l-3-7-6-5-9-3zm960 298-3 14 1 13 4 11 6 8 8 8 12 7 18 6 16 3 10 1h32l22-3 20-6 15-8 10-9 4-6 3-9v-11l-4-8-7-6-6-2-10-1-30 2-44 4h-30l-26-4-17-4z" fill="#0396B1"/>
</svg>
