<?xml version="1.0" encoding="UTF-8"?>
<svg version="1.1" viewBox="0 0 2048 2048" width="1280" height="1280" xmlns="http://www.w3.org/2000/svg">
<path transform="translate(1093,195)" d="m0 0h45l37 2 39 4 41 6 37 8 30 8 38 12 46 18 33 16 24 12 24 14 21 13 25 17 19 14 13 10 16 13 14 12 12 11 13 12 26 26 7 8 9 10 9 11 14 17 12 15 15 20 13 20 20 30 13 22 3 7v3l-5-1-8-9-8-10-9-11-10-11-7-8-11-12-20-20-11-9-11-10-11-9-8-7-19-14-16-11-20-13-26-16-22-12-29-14-28-12-34-13-31-10-32-9-45-9-50-7-43-3h-75l-34 3-45 7-42 9-35 9-37 12-32 13-25 12-26 13-18 10-22 13-15 10-15 12-12 9-4 5 16-4 40-15 33-11 34-9 36-7 31-4 40-3h36l33 2 36 4 26 5 36 9 33 10 38 13 41 17 25 11 25 12 22 12 25 15 24 16 19 14 13 10 11 9 14 12 15 14 34 34 7 8 9 10 9 11 13 16 13 17 14 20 11 17 15 25 12 22 9 17 13 28 12 27 13 36 9 31 8 34 7 38 3 27 2 36v45l-2 30-4 31-6 33-7 31-12 40-6 15-3 3-5-1-2-2v-11l7-52 2-27v-48l-4-50-4-33-6-32-7-25-1-2-1 3-3 61-3 32-5 30-9 36-12 40-10 27-13 29-15 30-11 20-12 20-10 15-13 19-9 12-11 14-9 11-12 14-7 7-7 8-37 37-11 9-14 12-14 10-5 1 1-8 12-34 8-29 6-36 3-29v-52l-3-32-5-33-7-30-7-24-10-30-9-21-12-25-14-26-9-14-13-19-14-19-11-13-7-8-15-16-10-10-2-1v-2l-4-2-7-7-11-9-16-13-19-14-21-13-18-10-28-14-23-10-25-9-39-11-29-6-27-4-32-2h-18l-31 2-17 3-10 4-3 3h24l33 1 28 3 29 5 28 7 36 12 25 12 16 8 18 10 32 24 11 9 12 11 8 8 8 7 9 10 6 9v3l-4-1-13-9-14-11-15-10-15-9-19-10-34-15-19-7-30-9-29-6-26-4-38-3h-27l-27 2-32 6-31 7-22 7-21 9-24 12-27 16-12 8-12 9-13 10-13 11-12 11-12 12-9 11-10 12-13 18-10 15-10 17-8 16-7 15-9 25-7 26-5 25-4 30-1 32 3 13 10 23 14 29 12 22 13 23 13 21 12 18 14 19 14 18 13 15 9 10 7 8 11 12 14 14 8 7 12 11 11 10 11 9 17 13 17 12 14 10 21 13 12 7 16 8 22 12 19 10 39 17 8 5-2 4-22-3-64-11-46-8-54-11-58-13-30-8-33-10-35-11-39-15-33-15-25-12-27-16-16-10-17-12-11-9-13-11-7-7-8-7-12-13-10-11-14-19-12-20-15-28-20-39-15-34-12-30-16-47-13-47-9-42-8-43-5-38-3-43-1-24v-36l2-39 4-38 6-38 9-43 7-27 9-29 12-33 11-26 8-18 22-44 13-23 11-18 12-19 11-16 12-16 16-21 14-17 11-12 9-11 8-8 1-2h2l2-4 24-24h2v-2l8-7 7-7 8-7 11-10 11-9 13-11 36-27 23-16 17-11 21-13 25-14 22-12 19-10 28-13 41-17 42-15 29-9 50-13 39-8 45-7 36-4z" fill="#67ACE0"/>
<path transform="translate(716,304)" d="m0 0 4 1-3 4-1 2h-2v2l-11 9-2 1-1 4 16 2 3 6 4 1 22-5 10-3h8l5-1 5 1 1 2 2-1v2h6l4 1 11-1-4 4 1 5 2-3 7-4h3v3h-2l-2 9-3 7-2 6-6 2 1 6-1 5-5-1-6 3v3l5 5-1 3-10 8h-2l-2 5-7 10-5 9v4l4 2 1 5-3 4-3 2 2 7 1 3-5 5-3 1v2h-2v2l4 1-6 9-4 1-1 7-4 1v2l-7 1v11l-8 2-2 4v4l6 1h5l-2 7-4 4h-2v3l5-3h3l1-2h3 2l1 4-5 7-6 5-6 8-3 9 8-7 22-22 8-7 13-11 13-10 13-9 1 2-3 3h-2l1 4-4 5-1 4 1 4-1 4h4v-2l-2-1h3l3 7 4 2 7 1 11 3v2l4 1v2l4 2 7 10 6 7 6 15 3 1 2 3 6 4 5 7 5 4 1 2 2-1 1 4h2l3 3v2h2l-1 8h3l4 4 5 3 3 5 1 2-1 5 5-1 7 11 2 6 5 2 2 5 4 1 3 3v3h3v3h2l1 4 3 1 6 6 2 5 2 1v2l5 2 1 8 3 1v2l2 1 1 4 11 7 2 5 6 5 4 6 1 5 4 1 6 9 1 3 3 1 5 5 6 4 4 1v2l2 1v7l2 11 1 4 3 1v2l3 1 1 2 5 1 3 4v2l5 1 12 8 7 3 9 3 9 7 4 9 1 5-2 1 1 2-1 3-2 1-52 1-25 2-32 5-18 4-5 1-12 3h-3l-1 2-11 3-18 6-5 2h-3l-1 2-7 3h-4l-1 2-16 8-9 3-1 2-11 6-14 8-7 5h-2v2h-3v2h-3v2l-6 2-1 3-11 7h3l16-6 14-4 18-5 9-2 26-5 17-2 19-2 66 2 28 3 29 5 28 7 36 12 25 12 16 8 18 10 32 24 11 9 12 11 8 8 8 7 9 10 6 9v3l-4-1-13-9-14-11-15-10-15-9-19-10-34-15-19-7-30-9-29-6-26-4-38-3h-27l-27 2-32 6-31 7-22 7-21 9-24 12-27 16-12 8-12 9-13 10-13 11-12 11-12 12-9 11-10 12-13 18-10 15-10 17-8 16-7 15-9 25-7 26-5 25-4 30-1 32 3 13 10 23 14 29 12 22 13 23 13 21 12 18 14 19 14 18 13 15 9 10 7 8 11 12 14 14 8 7 12 11 11 10 11 9 17 13 17 12 14 10 21 13 12 7 16 8 22 12 19 10 39 17 8 5-2 4-22-3-64-11-46-8-54-11-58-13-30-8-33-10-35-11-39-15-33-15-25-12-27-16-16-10-17-12-11-9-13-11-7-7-8-7-12-13-10-11-14-19-12-20-15-28-20-39-15-34-12-30-16-47-13-47-9-42-8-43-5-38-3-43-1-24v-36l2-39 4-38 6-38 9-43 7-27 9-29 12-33 11-26 8-18 22-44 13-23 11-18 12-19 11-16 12-16 16-21 14-17 11-12 9-11 8-8 1-2h2l2-4 24-24h2v-2l8-7 7-7 8-7 11-10 11-9 13-11 36-27 23-16 17-11 21-13 23-13 6-1 4 1z" fill="#67ACE0"/>
<path transform="translate(797,473)" d="m0 0 1 2-3 3h-2l1 4-4 5-1 4 1 4-1 4h4v-2l-2-1h3l3 7 4 2 7 1 11 3v2l4 1v2l4 2 7 10 6 7 6 15 3 1 2 3 6 4 5 7 5 4 1 2 2-1 1 4h2l3 3v2h2l-1 8h3l4 4 5 3 3 5 1 2-1 5 5-1 7 11 2 6 5 2 2 5 4 1 3 3v3h3v3h2l1 4 3 1 6 6 2 5 2 1v2l5 2 1 8 3 1v2l2 1 1 4 11 7 2 5 6 5 4 6 1 5 4 1 6 9 1 3 3 1 5 5 6 4 4 1v2l2 1v7l2 11 1 4 3 1v2l3 1 1 2 5 1 3 4v2l5 1 12 8 7 3 9 3 9 7 4 9 1 5-2 1 1 2-1 3-2 1-52 1-25 2-32 5-18 4-5 1-12 3h-3l-1 2-11 3-18 6-5 2h-3l-1 2-7 3h-4l-1 2-16 8-9 3-1 2-11 6-14 8-7 5h-2v2h-3v2h-3v2l-6 2-1 3-11 7h3l16-6 14-4 18-5 9-2 26-5 17-2 19-2 66 2 28 3 29 5 28 7 36 12 25 12 16 8 18 10 32 24 11 9 12 11 8 8 8 7 9 10 6 9v3l-4-1-13-9-14-11-15-10-15-9-19-10-34-15-19-7-30-9-29-6-26-4-38-3h-27l-27 2-32 6-31 7-22 7-21 9-24 12-27 16-12 8-12 9-13 10-13 11-12 11-12 12-9 11-10 12-13 18-10 15-10 17-8 16-7 15-9 25-7 26-5 25-4 30-1 27-3-3-4-10-5-14-10-30-7-25-6-26-6-28-5-32-2-16-1-11-1-7-1-14-1-11-1-14v-61l4-46 7-49 8-40 10-38 11-36 5-14 5-12 14-34 8-17 8-15 6-12 14-24 13-21 11-16 20-26 12-14 9-10 12-13 21-21 8-7 13-11 13-10z" fill="#337DB5"/>
<path transform="translate(1093,195)" d="m0 0h45l37 2 39 4 41 6 37 8 30 8 38 12 46 18 33 16 24 12 24 14 21 13 25 17 19 14 13 10 16 13 14 12 12 11 13 12 26 26 7 8 9 10 9 11 14 17 12 15 15 20 13 20 20 30 13 22 3 7v3l-5-1-8-9-8-10-9-11-10-11-7-8-11-12-20-20-11-9-11-10-11-9-8-7-19-14-16-11-20-13-26-16-22-12-29-14-28-12-34-13-31-10-32-9-45-9-50-7-43-3h-75l-34 3-45 7-42 9-35 9-37 12-32 13-25 12-26 13-18 10-22 13-15 10-15 12-12 9-4 5 8-1-4 3-16 8-11 8-13 10-11 9-11 10-8 7-22 22h-2l1-7 4-6 8-9h2l2-5 2-3v-3h-2l-1 2h-3l-6 3h-2v-3l6-5 1-5h-8l-3-2 1-5 4-4 6-1v-11l5-2 2 1v-2l3-2 1-6 6-3 4-7-3-1v-2h2v-2l6-4 1-3-2-3-1-7 4-1 2-4-1-5-4-4 2-5 3-6 8-11 2-4 9-7 3-2v-2l-5-5 1-4 7-3 4 2v-11l6-3 3-10 4-11h2v-3l-7 4h-3l-2 4-2-4 2-4 2-1-12 1-10-2-1-3-4 1-4-1-7 1-10 2-16 4-11 2-4-4-1-3-17-2 2-6 8-6 3-3h2v-2l2-2 2-4-9 2h-4v-3l33-17 16-8 26-12 34-14 42-15 29-9 50-13 39-8 45-7 36-4z" fill="#97CCEF"/>
<path transform="translate(481,1542)" d="m0 0 5 1 15 8 21 12 30 15 25 11 29 12 26 10 30 11 37 11 38 10 64 15 47 10 80 15 53 11 59 13 40 10 52 15 37 12 30 12 26 11 24 11 20 10 22 12 21 13 21 14 19 14 13 10 14 11 13 11 11 9 3 5-2 4-6-1-19-11-23-12-23-10-28-10-36-10-26-6-35-6-37-4-36-3-106-6-53-4-40-4-37-5-42-8-39-10-29-9-25-9-34-15-22-11-20-11-16-10-30-20-17-12-16-12-17-14-15-13-13-12-8-7-19-19-7-8-16-17-9-10-7-7-9-11-8-11z" fill="#337DB5"/>
<path transform="translate(297,1071)" d="m0 0h1v9h2l3 12 2 11 3 9 3 12 6 20 6 10 4 11 6 16 6 13 2 2 4 2 9 13 6 14 6 9 2 4v4h2l1 4h2l4 9 6 8 3 5 4 6v3l3 1 6 9 13 19 5 5 8 13 6 8 7 11 8 11v2h2l4 7v2l5 2 3 7 9 10 20 20 11 10 7 8v2l5 1 4 6 20 20 4 6 9 9 10 6 5 5 1 3 5 2 6 4v2l4 2 4 5 11 8 10 8 7 8 8 7 8 6v2l6 2 6 5 5 5 7 6 16 16 3-1v3l4 2 2 7 10 6 5 1v5l13 9v2l6 2 10 4 15 4 5 2 8 3 9 2 18 6 5 2 3-1 3 3-1 1-10-1-39-9-25-7-30-9-35-11-39-15-33-15-25-12-27-16-16-10-17-12-11-9-13-11-7-7-8-7-12-13-10-11-14-19-12-20-15-28-20-39-15-34-12-30-16-47-13-47-9-42-8-43v-10l3-1-1-7-2-5v-3l-2-1 2-6h2z" fill="#337DB5"/>
<path transform="translate(974,1693)" d="m0 0 11 2 55 12 40 10 52 15 37 12 30 12 26 11 24 11 20 10 22 12 21 13 21 14 19 14 13 10 14 11 13 11 11 9 3 5-2 4-6-1-19-11-23-12-23-10-28-10-36-10-26-6-35-6-37-4-36-3-36-2 2-3-9-1-13-2-20-5-5-4-12-2-5-4-17-1-4 2-1 6-6-2-6-6 3-2-4-2 1-7-2-4-5-3-1-5h-2v-2h-2l-3-5-4-6-2-4v-3h-2l-4-7-1-3-3-1v-2l-4-1-4-6-8-7-4-6v-7l1-2-1-3 7-2 3-2 14-1-1-4-2-3z" fill="#67ACE0"/>
<path transform="translate(1605,1251)" d="m0 0 2 1-1 6-12 24-11 20-12 20-10 15-13 19-9 12-11 14-9 11-12 14-7 7-7 8-37 37-11 9-14 12-14 10-5 1 1-8 12-34 8-29 6-36 3-29v-73l4-2 1-5 5-2 4 1v7l1 2h2l1-3 2 2 2 3 3 1 1 4-1 1v7l5 12 2 1 3 5h2l5 1v2h2l3 5 5 2 6 3 5 9 5 3v2h2l2 11 1 4 9 2 5-5-4-8v-2h2l2-5 3-6 4-17h2l1-4 3-2 2-5 2 3h2l1-6 5 4 5-1 4-2 1-3h3l2-4 10-9h2l1-3h2l2-4 8-14 6-11 3-3h2z" fill="#347EB5"/>
<path transform="translate(892,493)" d="m0 0 7 1 2 11h2v3l2-1-2-4 1-4 5 1 9 11 5 6 4 11 2 1v2l3-1 5 2 1 3 2 1v3h2v2l4 2 5 3h2v7h8l1 2 1 7 1 3-1 1v9l4 1 4 4-2 1v6l1 3 5 2 5 4 3 2 2 11 5 1 2 1 3 7v5l-3-1-3-3v-2l-5-1-4-6-6-4-2-6-7-2-2-4h-2l-2-4-3-1-3-6-1-4 1-8-3-7-2-6-5-3-7-5v-2l-4-2-3-2-6-6-5-2-2-4-3-3-6-3-3-4v-2l-5-1-2-2v-6l-1-2-3-1-1-5 1-3-2-4z" fill="#337DB5"/>
<path transform="translate(522,1393)" d="m0 0h5l2 5 8 6 6 6v2l4 2 4 3 7 4 5 5 10 8 1 3 4 2 8 10 7 11v2l8 2v2l5 2 3 2v2l4 1 5 5 4 8 2 5v3l5 2 4 5 7 7 1 3 6 2 5 5 5 4 8 6v2l3 1v2l5 2 14 11 2 2v3l4 1-1 2-9-5-5-4-5-3v-2l-7-2-4-5v-2h-2v-2l-5-2-7-4-1-4-6-2-9-9-3-1-6-9-6-3-6-7-9-6-2-1v-2h-2v-2h-2l-6-9-4-1-3-9-5-5-6-7-8-8v-2l-4-2-5-5-12-13-3-2v-2h-2v-3l-5-1-3-3v-2h-2v-2h-2l-4-5z" fill="#337DB5"/>
<path transform="translate(850,450)" d="m0 0h9v4l-7 3-4 2-1 2-7 4-8 2-2 2-6 2 2 2v3l3 1-1 1-7-1-6-6 1 6 3 3h-7l-2-2 1-5h-2v7l1 3-5-1v-9h-3l-1 2-3-3 16-8 5-3 20-7z" fill="#357FB7"/>
<path transform="translate(293,1007)" d="m0 0h2l3 9 2 5v13l2 11 3 9 2 8 2 6 2 10 3 10 2 7 5 10 3 4 1 13-2-2-3-8-7-8-5-13-4-11-4-17-2-13-2-9-1-19-1-9h-2z" fill="#337DB5"/>
<path transform="translate(751,1604)" d="m0 0 7 1 8 5 3 3v2h2v2l8-1v4h2v2l6 1 10 4-3 1-18-4-5-2-10-3-9-4-3-4v-2l4-2v-2z" fill="#337DB5"/>
<path transform="translate(697,564)" d="m0 0 1 3-9 11-15 20-13 20-2 3h-2l2-7 5-9 13-19 7-8 4-4 4-6z" fill="#8DC5EC"/>
<path transform="translate(1058,559)" d="m0 0 8 1 7 8 6 3 2 5h2l3 4h-3l-3-1-2-3-9-4-10-7z" fill="#337DB5"/>
<path transform="translate(941,498)" d="m0 0h3l6 7 3 1 3 5 7 2 2 9 3 2-2 6-4-3-3-10v-2l-8-2-3-5-5-2-2-6z" fill="#337DB5"/>
<path transform="translate(1015,647)" d="m0 0 5 3 3 3 5 4 2 4v4h5l2 2-1 3-3-3-5-1v-2l-4-2-4-6v-2h-3l-2-3z" fill="#337DB5"/>
<path transform="translate(722,1612)" d="m0 0 10 3 11 3 3 2 10 1 1 3-8-1-34-9v-1z" fill="#6CAFE1"/>
<path transform="translate(657,1594)" d="m0 0 9 2 6 2h5l4 1v2l6 1v2l3-1 6 3-4 1-36-11z" fill="#6AADE0"/>
<path transform="translate(1052,1765)" d="m0 0 6 1 3 3 8 4v9l-5-4-1-5-5-2-6-5z" fill="#337DB5"/>
<path transform="translate(1471,1289)" d="m0 0 2 4 2 3 2-5 3 3v8l-2 2-4-1-3-7z" fill="#337DB5"/>
<path transform="translate(1465,1268)" d="m0 0 2 3-1 12-3 1-2-8 1-7z" fill="#337DB5"/>
<path transform="translate(1494,1281)" d="m0 0 3 2 1 11-2 4-2-4z" fill="#337DB5"/>
<path transform="translate(707,551)" d="m0 0h2l-1 4-7 8-3-1 2-4 4-5z" fill="#8CC5EC"/>
<path transform="translate(954,498)" d="m0 0 6 1 4 9-5-1-4-5z" fill="#337DB5"/>
<path transform="translate(998,626)" d="m0 0h4v2l4 1 2 7-2 1-5-6-3-3z" fill="#337DB5"/>
<path transform="translate(697,564)" d="m0 0 1 3-8 10-2-3 4-6z" fill="#88C2EB"/>
<path transform="translate(296,1099)" d="m0 0 2 1 2 4 1 3h-3l-1 5h-1l-1-12z" fill="#68ACDE"/>
<path transform="translate(954,1689)" d="m0 0 13 2 5 1v2h-11l-7-4z" fill="#6BAEE0"/>
<path transform="translate(1071,701)" d="m0 0h3v7l-2 2-4-2 2-4z" fill="#337DB5"/>
<path transform="translate(1041,513)" d="m0 0 6 1 1 3-5 2h-3z" fill="#337DB5"/>
<path transform="translate(1049,528)" d="m0 0 1 2 3 1-1 5h-3l-2-3v-4z" fill="#347EB6"/>
<path transform="translate(1060,696)" d="m0 0 4 2v2l2 1-1 5h-3l-1-6z" fill="#337DB5"/>
<path transform="translate(837,1638)" d="m0 0h7l1 1 10 2-4 1-12-1z" fill="#337DB5"/>
<path transform="translate(480,1541)" d="m0 0" fill="#67ACE0"/>
</svg>
